<svg xmlns="http://www.w3.org/2000/svg" xmlns:xlink="http://www.w3.org/1999/xlink" width="1024" zoomAndPan="magnify" viewBox="0 0 768 424.499987" height="566" preserveAspectRatio="xMidYMid meet" version="1.0"><defs><clipPath id="e39943428c"><path d="M 0.453125 0 L 767 0 L 767 423.988281 L 0.453125 423.988281 Z M 0.453125 0 " clip-rule="nonzero"/></clipPath></defs><g clip-path="url(#e39943428c)"><path fill="#000000" d="M 755.695312 371.503906 C 744.503906 374.136719 732.980469 377.101562 721.457031 379.074219 C 690.507812 384.34375 659.5625 389.941406 627.957031 394.21875 C 606.886719 397.183594 585.484375 397.839844 564.414062 399.488281 C 528.199219 402.449219 492.316406 400.804688 456.429688 398.5 C 416.921875 395.535156 377.085938 396.523438 337.25 400.476562 C 320.460938 402.449219 303.667969 402.121094 286.878906 403.769531 C 263.832031 406.402344 241.117188 409.695312 218.070312 412.988281 C 196.011719 416.277344 173.953125 420.558594 151.566406 422.535156 C 138.066406 423.523438 124.898438 423.191406 111.402344 421.21875 C 92.304688 418.914062 73.539062 415.621094 54.445312 412.328125 C 39.628906 409.695312 25.472656 404.097656 12.960938 395.867188 C 6.707031 392.574219 3.085938 385.988281 3.085938 379.074219 C 3.085938 373.148438 2.425781 367.550781 2.097656 361.625 C 1.4375 308.617188 0.453125 255.28125 0.453125 201.945312 C 0.453125 175.609375 2.425781 149.269531 3.742188 122.929688 C 4.402344 104.824219 5.0625 86.714844 6.378906 68.605469 C 7.035156 60.703125 8.023438 53.132812 9.671875 45.230469 C 10.328125 40.949219 13.949219 37.660156 18.230469 37.660156 C 21.191406 37.328125 24.15625 36.671875 26.789062 36.671875 C 45.554688 36.339844 63.992188 34.695312 82.429688 31.730469 C 106.792969 28.109375 131.8125 27.78125 156.503906 27.121094 C 182.515625 26.464844 208.523438 26.464844 234.53125 25.148438 C 251.320312 23.832031 268.113281 21.527344 284.574219 18.5625 C 312.558594 13.296875 340.542969 9.671875 368.855469 8.027344 C 401.777344 6.050781 435.03125 2.757812 468.28125 1.441406 C 493.304688 0.453125 518.324219 0.785156 543.34375 1.441406 C 579.558594 2.101562 615.445312 3.089844 651.332031 4.078125 C 686.558594 5.0625 721.785156 6.710938 757.011719 8.027344 C 764.914062 8.355469 765.242188 8.6875 765.902344 15.929688 C 766.558594 24.488281 766.890625 32.71875 766.890625 41.28125 C 766.558594 86.714844 765.902344 132.476562 765.574219 177.914062 C 765.574219 197.667969 766.230469 217.421875 766.890625 237.175781 C 767.546875 268.453125 765.242188 299.730469 760.304688 330.675781 C 758.660156 342.199219 757.671875 353.722656 756.355469 365.246094 C 756.683594 367.222656 756.355469 368.867188 755.695312 371.503906 Z M 755.695312 371.503906 " fill-opacity="1" fill-rule="nonzero"/></g></svg>