<svg xmlns="http://www.w3.org/2000/svg" xmlns:xlink="http://www.w3.org/1999/xlink" width="376" zoomAndPan="magnify" viewBox="0 0 282 281.999989" height="376" preserveAspectRatio="xMidYMid meet" version="1.0"><defs><clipPath id="940584843f"><path d="M 0.0273438 0 L 281.972656 0 L 281.972656 282 L 0.0273438 282 Z M 0.0273438 0 " clip-rule="nonzero"/></clipPath></defs><g clip-path="url(#940584843f)"><path fill="#2c514c" d="M 22.066406 257.6875 C 23.289062 257.6875 24.28125 258.679688 24.28125 259.90625 C 24.28125 261.128906 23.289062 262.121094 22.066406 262.121094 C 20.84375 262.121094 19.851562 261.128906 19.851562 259.90625 C 19.820312 258.679688 20.785156 257.664062 22.007812 257.632812 C 22.027344 257.628906 22.046875 257.628906 22.066406 257.628906 Z M 22.066406 263.871094 C 24.253906 263.871094 26.03125 262.09375 26.03125 259.90625 C 26.03125 257.714844 24.253906 255.941406 22.066406 255.941406 C 19.875 255.941406 18.101562 257.714844 18.101562 259.90625 C 18.101562 262.09375 19.875 263.871094 22.066406 263.871094 Z M 259.933594 262.0625 C 258.707031 262.0625 257.71875 261.066406 257.71875 259.84375 C 257.71875 258.621094 258.707031 257.628906 259.933594 257.628906 C 261.15625 257.628906 262.148438 258.621094 262.148438 259.84375 C 262.179688 261.066406 261.214844 262.085938 259.992188 262.121094 C 259.953125 262.121094 259.914062 262.121094 259.875 262.121094 Z M 259.933594 255.878906 C 257.742188 255.878906 255.96875 257.65625 255.96875 259.84375 C 255.96875 262.035156 257.742188 263.808594 259.933594 263.808594 C 262.121094 263.808594 263.898438 262.035156 263.898438 259.84375 C 263.867188 257.65625 262.066406 255.90625 259.875 255.941406 Z M 259.933594 24.253906 C 258.707031 24.253906 257.71875 23.261719 257.71875 22.039062 C 257.71875 20.8125 258.707031 19.820312 259.933594 19.820312 C 261.15625 19.820312 262.148438 20.8125 262.148438 22.039062 C 262.179688 23.261719 261.214844 24.277344 259.992188 24.3125 C 259.972656 24.3125 259.953125 24.3125 259.933594 24.3125 Z M 259.933594 18.074219 C 257.742188 18.074219 255.96875 19.847656 255.96875 22.039062 C 255.96875 24.226562 257.742188 26.003906 259.933594 26.003906 C 262.121094 26.003906 263.898438 24.226562 263.898438 22.039062 C 263.898438 19.847656 262.121094 18.074219 259.933594 18.074219 Z M 280.28125 95.789062 L 280.28125 218.511719 L 275.324219 218.511719 L 275.324219 63.429688 L 280.28125 63.429688 Z M 268.96875 268.765625 C 270.835938 269.523438 273.75 270.921875 275.324219 272.496094 C 277.890625 275.0625 277.132812 275.820312 276.550781 276.34375 C 275.964844 276.867188 275.265625 277.6875 272.699219 275.121094 C 271.066406 273.546875 269.667969 270.691406 268.910156 268.765625 Z M 220.347656 280.195312 L 220.347656 275.238281 L 246.699219 275.238281 L 246.699219 274.363281 C 246.699219 272.28125 246.933594 270.210938 247.398438 268.183594 L 266.8125 268.183594 C 267.398438 269.816406 269.144531 274.128906 271.417969 276.402344 C 272.523438 277.511719 273.925781 278.675781 275.441406 278.675781 C 276.308594 278.648438 277.128906 278.269531 277.714844 277.628906 C 279.988281 275.355469 278.121094 272.90625 276.488281 271.273438 C 274.855469 269.640625 269.667969 267.132812 268.152344 266.609375 L 268.152344 247.371094 C 270.183594 246.90625 272.253906 246.671875 274.332031 246.671875 L 275.207031 246.671875 L 275.207031 220.261719 L 280.164062 220.261719 L 280.164062 280.195312 L 220.289062 280.195312 Z M 220.347656 268.183594 L 245.648438 268.183594 C 245.273438 269.925781 245.058594 271.703125 245.007812 273.488281 L 220.289062 273.488281 L 220.289062 268.183594 Z M 190.671875 268.183594 C 188.691406 268.183594 188.691406 267.714844 188.691406 267.308594 C 188.691406 266.902344 188.691406 266.433594 190.671875 266.433594 C 191.953125 266.519531 193.214844 266.8125 194.402344 267.308594 C 193.199219 267.808594 191.917969 268.101562 190.613281 268.183594 Z M 266.460938 247.835938 L 266.460938 266.433594 L 247.808594 266.433594 C 250.511719 257.496094 257.515625 250.511719 266.460938 247.835938 Z M 268.210938 220.261719 L 273.519531 220.261719 L 273.519531 244.921875 C 271.734375 244.972656 269.957031 245.1875 268.210938 245.5625 Z M 267.511719 188.601562 C 267.921875 188.601562 268.386719 188.601562 268.386719 190.582031 C 268.300781 191.867188 268.003906 193.128906 267.511719 194.316406 C 267.019531 193.128906 266.722656 191.867188 266.636719 190.582031 C 266.636719 188.601562 267.105469 188.601562 267.511719 188.601562 Z M 268.210938 61.683594 L 268.210938 36.378906 C 269.957031 36.753906 271.734375 36.96875 273.519531 37.019531 L 273.519531 61.683594 Z M 267.335938 93.339844 C 266.929688 93.339844 266.460938 93.339844 266.460938 91.355469 C 266.550781 90.074219 266.84375 88.8125 267.335938 87.625 C 267.832031 88.8125 268.125 90.074219 268.210938 91.355469 C 268.210938 93.339844 267.746094 93.339844 267.335938 93.339844 Z M 247.867188 15.507812 L 266.460938 15.507812 L 266.460938 34.164062 C 257.523438 31.460938 250.539062 24.453125 247.867188 15.507812 Z M 220.289062 13.761719 L 220.289062 8.453125 L 244.949219 8.453125 C 245 10.238281 245.21875 12.011719 245.589844 13.761719 Z M 190.671875 15.332031 C 188.691406 15.332031 188.691406 14.867188 188.691406 14.460938 C 188.691406 14.050781 188.691406 13.585938 190.671875 13.585938 C 191.953125 13.667969 193.214844 13.964844 194.402344 14.460938 C 193.199219 14.957031 191.917969 15.253906 190.613281 15.332031 Z M 186.183594 6.703125 L 63.460938 6.703125 L 63.460938 1.75 L 218.539062 1.75 L 218.539062 6.703125 Z M 61.652344 13.761719 L 36.40625 13.761719 C 36.785156 12.011719 36.996094 10.238281 37.050781 8.453125 L 61.710938 8.453125 L 61.710938 13.761719 Z M 91.328125 13.761719 C 93.308594 13.761719 93.308594 14.222656 93.308594 14.632812 C 93.308594 15.042969 93.308594 15.507812 91.328125 15.507812 C 90.042969 15.421875 88.785156 15.125 87.597656 14.632812 C 88.804688 14.132812 90.082031 13.835938 91.386719 13.761719 Z M 15.539062 34.105469 L 15.539062 15.507812 L 34.195312 15.507812 C 31.492188 24.445312 24.484375 31.433594 15.539062 34.105469 Z M 13.789062 61.683594 L 8.484375 61.683594 L 8.484375 37.019531 C 10.265625 36.96875 12.042969 36.753906 13.789062 36.378906 Z M 14.488281 93.339844 C 14.082031 93.339844 13.613281 93.339844 13.613281 91.355469 C 13.699219 90.074219 13.992188 88.8125 14.488281 87.625 C 14.980469 88.8125 15.277344 90.074219 15.363281 91.355469 C 15.363281 93.339844 14.894531 93.339844 14.488281 93.339844 Z M 6.734375 95.789062 L 6.734375 218.511719 L 1.777344 218.511719 L 1.777344 63.429688 L 6.734375 63.429688 Z M 13.789062 220.261719 L 13.789062 245.5625 C 12.042969 245.1875 10.265625 244.972656 8.484375 244.921875 L 8.484375 220.261719 Z M 14.664062 188.601562 C 15.070312 188.601562 15.539062 188.601562 15.539062 190.582031 C 15.453125 191.867188 15.15625 193.128906 14.664062 194.316406 C 14.167969 193.128906 13.875 191.867188 13.789062 190.582031 C 13.789062 188.601562 14.253906 188.601562 14.664062 188.601562 Z M 34.136719 266.433594 L 15.539062 266.433594 L 15.539062 247.777344 C 24.472656 250.480469 31.460938 257.484375 34.136719 266.433594 Z M 61.710938 268.183594 L 61.710938 273.488281 L 37.050781 273.488281 C 36.996094 271.703125 36.785156 269.925781 36.40625 268.183594 Z M 91.386719 266.609375 C 93.371094 266.609375 93.371094 267.074219 93.371094 267.484375 C 93.371094 267.890625 93.371094 268.359375 91.386719 268.359375 C 90.105469 268.273438 88.84375 267.976562 87.65625 267.484375 C 88.84375 266.988281 90.105469 266.691406 91.386719 266.609375 Z M 13.207031 268.882812 C 12.449219 270.746094 11.046875 273.660156 9.472656 275.238281 C 7.898438 276.8125 7.257812 276.929688 6.792969 276.988281 C 6.320312 277.03125 5.863281 276.832031 5.566406 276.460938 C 5.195312 276.167969 5 275.707031 5.042969 275.238281 C 5.101562 274.769531 5.453125 273.953125 6.792969 272.554688 C 8.132812 271.15625 11.28125 269.640625 13.207031 268.882812 Z M 61.710938 280.195312 L 1.777344 280.195312 L 1.777344 220.261719 L 6.734375 220.261719 L 6.734375 246.613281 L 7.609375 246.613281 C 9.6875 246.613281 11.761719 246.847656 13.789062 247.3125 L 13.789062 266.726562 C 12.15625 267.308594 7.839844 269.058594 5.566406 271.328125 C 3.292969 273.605469 2.070312 275.355469 4.34375 277.6875 C 4.921875 278.335938 5.746094 278.714844 6.617188 278.734375 L 7.023438 278.734375 C 8.132812 278.617188 9.296875 277.863281 10.699219 276.460938 C 13.085938 274.070312 14.835938 269.640625 15.363281 268.125 L 34.601562 268.125 C 35.066406 270.152344 35.300781 272.226562 35.300781 274.304688 L 35.300781 275.179688 L 61.710938 275.179688 Z M 13.085938 13.175781 C 11.222656 12.417969 8.308594 11.019531 6.734375 9.445312 C 4.167969 6.878906 4.925781 6.121094 5.507812 5.597656 C 6.089844 5.070312 6.792969 4.257812 9.355469 6.820312 C 10.929688 8.394531 12.332031 11.253906 13.085938 13.175781 Z M 61.710938 1.75 L 61.710938 6.703125 L 35.359375 6.703125 L 35.359375 7.578125 C 35.359375 9.660156 35.125 11.730469 34.660156 13.761719 L 15.1875 13.761719 C 14.605469 12.128906 12.855469 7.8125 10.582031 5.539062 C 8.308594 3.265625 6.558594 2.039062 4.226562 4.3125 C 1.894531 6.589844 3.820312 9.035156 5.453125 10.667969 C 7.085938 12.300781 12.273438 14.808594 13.789062 15.332031 L 13.789062 34.574219 C 11.761719 35.039062 9.6875 35.273438 7.609375 35.273438 L 6.734375 35.273438 L 6.734375 61.683594 L 1.777344 61.683594 L 1.777344 1.75 Z M 268.792969 13.058594 C 269.554688 11.191406 270.953125 8.277344 272.523438 6.703125 C 274.101562 5.132812 274.742188 5.015625 275.207031 4.957031 L 275.382812 4.957031 C 275.789062 4.976562 276.171875 5.164062 276.433594 5.480469 C 276.800781 5.773438 277 6.234375 276.957031 6.703125 C 276.898438 7.171875 276.550781 7.988281 275.207031 9.386719 C 273.867188 10.785156 270.71875 12.300781 268.792969 13.058594 Z M 280.222656 61.683594 L 275.265625 61.683594 L 275.265625 35.332031 L 274.394531 35.332031 C 272.3125 35.328125 270.238281 35.09375 268.210938 34.628906 L 268.210938 15.15625 C 269.84375 14.574219 274.15625 12.824219 276.433594 10.554688 C 278.707031 8.277344 279.929688 6.527344 277.65625 4.195312 C 276.992188 3.425781 275.988281 3.035156 274.976562 3.148438 C 273.867188 3.265625 272.699219 4.023438 271.300781 5.421875 C 268.910156 7.8125 267.160156 12.242188 266.636719 13.761719 L 247.398438 13.761719 C 246.933594 11.730469 246.699219 9.660156 246.699219 7.578125 L 246.699219 6.703125 L 220.289062 6.703125 L 220.289062 1.75 L 280.222656 1.75 Z M 186.183594 0 L 0.0273438 0 L 0.0273438 281.941406 L 186.183594 281.941406 L 186.183594 280.195312 L 63.460938 280.195312 L 63.460938 275.238281 L 186.183594 275.238281 L 186.183594 273.488281 L 63.460938 273.488281 L 63.460938 268.183594 L 84.796875 268.183594 L 84.972656 268.300781 C 85.148438 268.359375 88.707031 270.164062 91.328125 270.164062 C 92.261719 270.164062 95.058594 270.164062 95.058594 267.539062 C 95.058594 264.917969 92.261719 264.917969 91.328125 264.917969 C 89.167969 264.917969 86.375 266.082031 85.378906 266.550781 L 85.378906 266.433594 L 36 266.433594 C 33.203125 256.519531 25.453125 248.769531 15.539062 245.96875 L 15.539062 196.765625 C 15.886719 195.949219 17.285156 192.914062 17.285156 190.582031 C 17.285156 189.652344 17.285156 186.851562 14.664062 186.851562 C 12.039062 186.851562 12.039062 189.652344 12.039062 190.582031 C 12.039062 192.914062 13.4375 195.949219 13.789062 196.765625 L 13.789062 218.511719 L 8.484375 218.511719 L 8.484375 63.429688 L 13.789062 63.429688 L 13.789062 84.769531 L 13.671875 84.945312 C 13.613281 85.117188 11.804688 88.675781 11.804688 91.300781 C 11.804688 92.230469 11.804688 95.03125 14.429688 95.03125 C 17.050781 95.03125 17.050781 92.230469 17.050781 91.300781 C 17.050781 89.140625 15.886719 86.34375 15.417969 85.351562 L 15.539062 85.351562 L 15.539062 35.972656 C 25.453125 33.175781 33.203125 25.425781 36 15.507812 L 85.207031 15.507812 C 86.023438 15.855469 89.054688 17.257812 91.386719 17.257812 C 92.320312 17.257812 95.117188 17.257812 95.117188 14.632812 C 95.117188 12.011719 92.320312 12.011719 91.386719 12.011719 C 89.054688 12.011719 86.023438 13.410156 85.207031 13.761719 L 63.460938 13.761719 L 63.460938 8.453125 L 218.539062 8.453125 L 218.539062 13.761719 L 197.203125 13.761719 L 197.027344 13.640625 C 196.851562 13.585938 193.296875 11.777344 190.671875 11.777344 C 189.738281 11.777344 186.941406 11.777344 186.941406 14.398438 C 186.941406 17.023438 189.738281 17.023438 190.671875 17.023438 C 192.828125 17.023438 195.628906 15.855469 196.617188 15.390625 L 196.617188 15.507812 L 246.058594 15.507812 C 248.855469 25.425781 256.605469 33.175781 266.523438 35.972656 L 266.523438 85.179688 C 266.171875 85.992188 264.773438 89.023438 264.773438 91.355469 C 264.773438 92.289062 264.773438 95.089844 267.398438 95.089844 C 270.019531 95.089844 270.019531 92.289062 270.019531 91.355469 C 270.019531 89.023438 268.621094 85.992188 268.269531 85.179688 L 268.269531 63.429688 L 273.574219 63.429688 L 273.574219 218.511719 L 268.269531 218.511719 L 268.269531 197.171875 L 268.386719 196.996094 C 268.445312 196.824219 270.253906 193.265625 270.253906 190.644531 C 270.253906 189.710938 270.253906 186.914062 267.628906 186.914062 C 265.003906 186.914062 265.003906 189.710938 265.003906 190.644531 C 265.003906 192.800781 266.171875 195.597656 266.636719 196.589844 L 266.523438 196.589844 L 266.523438 246.027344 C 256.605469 248.824219 248.855469 256.574219 246.058594 266.492188 L 196.792969 266.492188 C 195.976562 266.140625 192.945312 264.742188 190.613281 264.742188 C 189.679688 264.742188 186.882812 264.742188 186.882812 267.367188 C 186.882812 269.992188 189.679688 269.992188 190.613281 269.992188 C 192.945312 269.992188 195.976562 268.589844 196.792969 268.242188 L 218.539062 268.242188 L 218.539062 273.546875 L 186.183594 273.546875 L 186.183594 275.296875 L 218.539062 275.296875 L 218.539062 280.25 L 186.183594 280.25 L 186.183594 282 L 281.972656 282 L 281.972656 0 Z M 22.125 19.820312 C 23.347656 19.855469 24.3125 20.871094 24.28125 22.09375 C 24.25 23.316406 23.230469 24.285156 22.007812 24.25 C 20.808594 24.21875 19.851562 23.238281 19.851562 22.039062 C 19.851562 20.8125 20.84375 19.820312 22.066406 19.820312 C 22.085938 19.820312 22.105469 19.820312 22.125 19.820312 Z M 22.125 26.003906 C 24.316406 25.972656 26.0625 24.167969 26.03125 21.980469 C 25.996094 19.789062 24.199219 18.042969 22.007812 18.074219 C 19.84375 18.105469 18.101562 19.871094 18.101562 22.039062 C 18.101562 24.226562 19.875 26.003906 22.066406 26.003906 C 22.085938 26.003906 22.105469 26.003906 22.125 26.003906 " fill-opacity="1" fill-rule="nonzero"/></g></svg>