<svg xmlns="http://www.w3.org/2000/svg" xmlns:xlink="http://www.w3.org/1999/xlink" width="1024" zoomAndPan="magnify" viewBox="0 0 768 304.499991" height="406" preserveAspectRatio="xMidYMid meet" version="1.0"><path fill="#04463b" d="M 405.335938 0 C 406.847656 1.675781 408.84375 0.945312 410.625 0.992188 C 426.828125 1.371094 443.042969 1.296875 459.214844 2.164062 C 478.984375 3.230469 498.78125 3.308594 518.53125 4.191406 C 540.511719 5.183594 562.472656 6.496094 584.449219 7.441406 C 597.96875 8.019531 611.535156 7.761719 625.023438 9.148438 C 641.484375 10.839844 658.050781 11.144531 674.496094 13.097656 C 680.195312 13.765625 686.046875 13.476562 691.824219 13.203125 C 697.296875 12.945312 702.613281 14.179688 708.027344 14.300781 C 709.472656 14.332031 710.769531 14.683594 711.195312 16.28125 C 711.605469 17.882812 710.507812 18.828125 709.457031 19.683594 C 706.164062 22.351562 701.960938 21.863281 698.253906 22.105469 C 688.195312 22.777344 678.273438 24.683594 668.15625 24.972656 C 660.808594 25.1875 653.492188 26.757812 645.277344 27.839844 C 654.832031 30.398438 663.8125 29.316406 672.574219 30.523438 C 683.257812 32 694.078125 32.335938 704.734375 34.289062 C 708.710938 35.019531 712.78125 35.171875 716.773438 35.796875 C 718.738281 36.101562 721.222656 36.527344 721.390625 39 C 721.558594 41.453125 719.042969 41.710938 717.335938 41.972656 C 712.003906 42.75 706.636719 43.753906 701.273438 43.769531 C 689.597656 43.800781 677.984375 44.226562 665.335938 46.453125 C 685.558594 49.65625 704.566406 53.421875 723.875 55.160156 C 724.867188 55.25 725.828125 55.722656 726.800781 55.984375 C 728.523438 56.441406 730.308594 57.1875 730.382812 59.09375 C 730.476562 61.226562 728.296875 61.714844 726.757812 62.035156 C 722.304688 62.949219 717.792969 64.0625 713.285156 64.183594 C 700.070312 64.503906 686.839844 64.214844 673.609375 65.175781 C 668.230469 65.570312 662.867188 66.03125 657.394531 67.15625 C 669.863281 69.261719 682.34375 71.214844 694.765625 73.53125 C 714.167969 77.160156 733.523438 80.984375 752.863281 84.875 C 755.027344 85.316406 757.96875 85.773438 758.230469 88.699219 C 758.503906 91.886719 755.652344 92.800781 753.304688 93.730469 C 749.921875 95.058594 746.113281 95.269531 742.226562 97.589844 C 748.339844 98.457031 753.613281 99.234375 758.886719 99.953125 C 760.273438 100.132812 761.675781 100.316406 762.191406 101.839844 C 762.816406 103.671875 761.445312 104.738281 760.300781 105.683594 C 758.746094 106.980469 757.027344 108.078125 755.347656 109.207031 C 754.648438 109.679688 753.625 110.121094 754.054688 111.035156 C 754.34375 111.628906 755.363281 112.027344 756.125 112.179688 C 757.101562 112.375 758.167969 112.179688 759.175781 112.300781 C 764.371094 112.878906 765.742188 115.457031 762.800781 119.710938 C 760.667969 122.804688 760.285156 125.167969 762.3125 128.828125 C 765.089844 133.859375 764.28125 140.0625 763.152344 145.324219 C 760.4375 157.914062 760.257812 170.523438 760.4375 183.238281 C 760.578125 193.179688 762.589844 202.9375 762.96875 212.890625 C 763.410156 224.601562 762.480469 236.140625 761.0625 247.699219 C 760.59375 251.539062 759.9375 255.367188 759.433594 259.207031 C 758.625 265.476562 756.902344 267.242188 750.761719 268.539062 C 746.464844 269.4375 742.148438 270.503906 738.734375 274.164062 C 742.925781 275.230469 742.394531 278.570312 741.984375 281.453125 C 741.433594 285.292969 738.050781 286.925781 734.941406 287.871094 C 727.199219 290.21875 719.289062 292.046875 711.46875 294.121094 C 708.773438 294.839844 706.289062 295.144531 706.105469 299.304688 C 705.9375 303.222656 701.730469 302.796875 698.820312 303.085938 C 689.996094 303.984375 681.246094 302.140625 672.421875 302.066406 C 659.253906 301.957031 646.023438 302.09375 632.949219 300.890625 C 620.207031 299.714844 607.496094 300.769531 594.816406 300.007812 C 579.054688 299.0625 563.234375 299.824219 547.523438 298.800781 C 531.546875 297.765625 515.621094 298.574219 499.695312 298.023438 C 481.070312 297.382812 462.445312 296.730469 443.835938 295.949219 C 430.257812 295.386719 416.691406 294.65625 403.128906 293.9375 C 361.09375 291.742188 319.027344 293.34375 276.976562 293.070312 C 270.421875 293.023438 263.824219 294.226562 257.210938 293.9375 C 247.578125 293.511719 237.914062 292.960938 228.800781 289.59375 C 225.523438 288.390625 222.808594 289.882812 219.839844 289.929688 C 198.957031 290.265625 178.109375 288.769531 157.226562 288.511719 C 147.777344 288.390625 138.238281 287.71875 128.773438 287.933594 C 115.847656 288.222656 103.03125 286.316406 90.121094 286.804688 C 87.421875 286.910156 84.757812 286.863281 82.042969 287.429688 C 79.863281 287.871094 76.695312 287.445312 76.175781 284.730469 C 75.582031 281.605469 78.644531 281.253906 80.929688 280.707031 C 87.164062 279.226562 93.445312 277.871094 99.648438 276.253906 C 102.726562 275.445312 107.9375 275.429688 108.289062 273.113281 C 108.867188 269.179688 110.179688 264.972656 109.140625 260.808594 C 108.851562 259.667969 108.472656 258.492188 108.503906 257.332031 C 108.59375 254.832031 107.375 254.191406 105.089844 254.101562 C 94.113281 253.675781 83.246094 252.257812 72.425781 250.273438 C 68.691406 249.589844 64.746094 250.089844 60.890625 250.046875 C 57.765625 250.015625 54.929688 249.132812 54.441406 245.671875 C 53.921875 241.964844 56.925781 240.667969 59.792969 240 C 62.167969 239.449219 64.226562 238.519531 67.152344 236.613281 C 61.132812 235.273438 56.636719 232.300781 51.257812 231.613281 C 49.03125 231.324219 46.578125 230.714844 46.347656 228.03125 C 46.105469 225.332031 47.414062 223.488281 50.234375 222.253906 C 57.582031 219.003906 65.582031 218.226562 73.113281 215.757812 C 84.191406 212.113281 94.875 207.28125 107.039062 204.859375 C 103.535156 202.601562 100.210938 202.023438 96.765625 202.097656 C 81.464844 202.433594 66.453125 200.589844 51.484375 197.386719 C 45.769531 196.167969 39.703125 196.699219 33.804688 196.0625 C 27.3125 195.359375 22.878906 189.933594 24.296875 183.511719 C 25.652344 177.398438 24.171875 175.617188 17.648438 175.554688 C 11.460938 175.496094 5.945312 173.953125 2.300781 168.40625 C 2.300781 167.382812 2.300781 166.363281 2.300781 165.339844 C 3.933594 163.433594 6.113281 161.757812 7.074219 159.5625 C 8.351562 156.636719 11.339844 153.675781 9.40625 150.1875 C 5.488281 143.15625 5.851562 135.871094 7.46875 128.445312 C 8.15625 125.273438 8.351562 122.269531 7.925781 118.960938 C 6.949219 111.386719 9.28125 108.792969 17.175781 107.101562 C 19.828125 106.539062 20.789062 105.761719 19.175781 102.664062 C 16.140625 96.839844 17.574219 94.25 23.824219 91.949219 C 33.332031 88.441406 43.070312 85.621094 52.203125 81.015625 C 55.402344 79.398438 56.53125 77.480469 57.503906 74.414062 C 60.507812 64.902344 62.367188 55.007812 66.664062 45.933594 C 68.34375 42.398438 68.953125 39.121094 68.035156 35.1875 C 66.148438 27.015625 69.804688 21.648438 77.5625 20.492188 C 89.007812 18.78125 100.300781 16.144531 111.945312 15.613281 C 124.703125 15.03125 137.367188 13.003906 150.066406 11.707031 C 165.152344 10.167969 180.289062 8.84375 195.390625 7.425781 C 214.382812 5.625 233.464844 4.285156 252.515625 3.261719 C 276.671875 1.980469 300.859375 0.488281 325.09375 1.007812 C 326.707031 1.035156 328.539062 1.585938 329.863281 0.015625 C 354.996094 0 380.175781 0 405.335938 0 Z M 405.335938 0 " fill-opacity="1" fill-rule="nonzero"/></svg>