<svg xmlns="http://www.w3.org/2000/svg" xmlns:xlink="http://www.w3.org/1999/xlink" width="450" zoomAndPan="magnify" viewBox="0 0 337.5 337.500003" height="450" preserveAspectRatio="xMidYMid meet" version="1.0"><defs><clipPath id="6417673af1"><path d="M 59.523438 192 L 289.941406 192 L 289.941406 303.621094 L 59.523438 303.621094 Z M 59.523438 192 " clip-rule="nonzero"/></clipPath></defs><path fill="#769c99" d="M 66.292969 164.097656 C 47.691406 188.417969 71.609375 185.898438 87.941406 182.039062 C 111.457031 176.539062 133.988281 167.273438 156.867188 161.730469 C 179.746094 156.175781 202.5625 151.359375 223.878906 141.261719 C 233.148438 137.582031 275.03125 118.800781 268.667969 102.085938 C 263.382812 89.347656 223.351562 100.898438 213.289062 103.40625 C 205.746094 88.53125 200.457031 72.1875 190.414062 58.933594 C 181.039062 47.003906 164.019531 40.457031 147.679688 35.820312 C 146.726562 35.363281 145.710938 35.074219 144.632812 34.96875 C 134.328125 33.789062 118.734375 46.835938 112.414062 52.203125 C 109.261719 54.8125 106.359375 57.542969 103.621094 60.402344 C 92.488281 71.960938 84.109375 85.242188 74.179688 98.183594 C 71.214844 102.226562 62.339844 111.628906 66.382812 117.550781 C 71.214844 124.261719 84.691406 113.511719 89.253906 110.820312 C 96.03125 106.824219 103.101562 103.527344 110.296875 100.527344 C 109.644531 111.632812 107.847656 123.179688 106.109375 134.085938 C 91.195312 141.488281 75.84375 151.425781 66.292969 164.097656 " fill-opacity="1" fill-rule="nonzero"/><g clip-path="url(#6417673af1)"><path fill="#769c99" d="M 289.878906 278.289062 C 289.007812 272.328125 281.488281 266.195312 277.960938 262.792969 C 270.214844 255.332031 261.34375 245.457031 252.15625 239.886719 C 237.125 230.566406 214.835938 214.511719 196.175781 220.207031 C 196.175781 210.886719 198.765625 201.566406 198.765625 192.242188 L 140.183594 201.710938 C 140.183594 207.921875 137.085938 215.546875 132.9375 220.207031 C 129.3125 225.386719 117.390625 227.976562 111.6875 231.082031 C 89.917969 242.472656 61.925781 265.257812 59.851562 291.667969 L 60.078125 291.652344 C 59.15625 296.84375 68.570312 301.679688 73.328125 302.542969 C 85.769531 304.617188 100.28125 303.0625 113.242188 303.0625 C 150.5625 303.0625 188.398438 301.507812 225.203125 298.402344 C 237.039062 297.585938 248.890625 296.179688 260.433594 293.390625 C 267.96875 291.570312 287.515625 290.015625 289.757812 281.050781 C 289.988281 280.140625 290.011719 279.21875 289.878906 278.289062 " fill-opacity="1" fill-rule="nonzero"/></g><path fill="#f17e8b" d="M 208.746094 169.203125 C 206.636719 158.796875 210.070312 154.910156 206.691406 144.671875 C 204.972656 139.46875 204.730469 135.347656 201.042969 131.238281 C 198.277344 128.152344 194.027344 125.109375 189.753906 123.292969 C 180.835938 125.597656 172.035156 128.339844 163.3125 131.429688 C 154.410156 134.597656 145.640625 138.207031 137.027344 142.140625 C 135.386719 145.457031 134.046875 148.769531 133.007812 151.789062 C 131.644531 161.527344 134.867188 173.042969 136.308594 182.757812 C 137.726562 192.34375 142.074219 201.960938 149.375 208.429688 C 156.222656 214.492188 166.171875 221.292969 175.429688 222.429688 C 184.757812 223.582031 193.15625 217.402344 199.421875 210.726562 C 207.660156 201.953125 211.769531 184.09375 208.746094 169.203125 " fill-opacity="1" fill-rule="nonzero"/><path fill="#d6e1d6" d="M 150.011719 167.578125 C 149.777344 167.972656 149.765625 168.675781 150.1875 168.945312 C 158.367188 174.144531 167.601562 168.910156 167.296875 167.929688 C 165.191406 161.132812 153.238281 162.058594 150.011719 167.578125 " fill-opacity="1" fill-rule="nonzero"/><path fill="#d6e1d6" d="M 206.484375 163.660156 C 203.453125 158.414062 194.082031 159.304688 191.183594 164.257812 C 190.972656 164.609375 190.988281 165.199219 191.339844 165.484375 C 193.046875 166.820312 197.160156 167.808594 200.074219 167.332031 C 204.070312 166.679688 206.75 164.121094 206.484375 163.660156 " fill-opacity="1" fill-rule="nonzero"/><path fill="#a05f83" d="M 239.890625 216.585938 C 240.925781 211.75 244.726562 212.097656 240.925781 206.570312 C 237.816406 202.082031 232.632812 200.015625 228.484375 196.5625 C 231.25 187.929688 240.925781 185.167969 231.25 176.539062 C 224.683594 170.671875 218.460938 169.632812 221.226562 159.625 C 223.648438 150.992188 225.03125 142.707031 221.578125 134.074219 C 219.128906 127.957031 214.632812 123.167969 209.648438 118.921875 C 209.273438 118.992188 208.902344 119.058594 208.53125 119.128906 C 202.210938 120.292969 195.953125 121.691406 189.753906 123.296875 C 194.027344 125.121094 198.277344 128.152344 201.042969 131.238281 C 204.730469 135.347656 204.972656 139.46875 206.691406 144.671875 C 210.070312 154.910156 206.636719 158.796875 208.746094 169.203125 C 211.769531 184.09375 207.660156 201.953125 199.421875 210.726562 C 198.507812 211.703125 197.546875 212.664062 196.539062 213.601562 C 196.316406 215.804688 196.171875 218 196.171875 220.207031 C 208.789062 216.355469 223.066406 222.449219 235.632812 229.675781 C 238.609375 230.386719 241.621094 231.015625 244.726562 231.425781 C 257.855469 233.496094 239.195312 221.765625 239.890625 216.585938 " fill-opacity="1" fill-rule="nonzero"/><path fill="#a05f83" d="M 160.089844 167.332031 C 158.476562 167.332031 158.476562 165.207031 160.089844 165.207031 C 161.167969 165.210938 160.089844 167.332031 160.089844 167.332031 Z M 157.945312 163.890625 C 157.804688 163.957031 157.664062 164.046875 157.535156 164.148438 C 155.976562 164.917969 155.007812 167.210938 155.613281 168.78125 C 156.601562 171.328125 160.058594 171.886719 161.96875 170.113281 C 163.664062 168.535156 163.484375 165.628906 161.621094 164.292969 C 160.453125 163.449219 159.257812 163.265625 157.945312 163.890625 " fill-opacity="1" fill-rule="nonzero"/><path fill="#a05f83" d="M 199.902344 164.035156 C 198.824219 164.035156 198.824219 162.128906 199.902344 162.128906 C 201.515625 162.128906 199.902344 164.035156 199.902344 164.035156 Z M 198.132812 160.890625 C 198.011719 160.957031 197.890625 161.039062 197.773438 161.136719 C 196.460938 161.875 195.660156 163.859375 196.046875 165.214844 C 196.765625 167.714844 200.09375 168.179688 201.894531 166.703125 C 203.597656 165.304688 203.402344 162.46875 201.679688 161.214844 C 200.5625 160.402344 199.367188 160.210938 198.132812 160.890625 " fill-opacity="1" fill-rule="nonzero"/><path fill="#a05f83" d="M 206.652344 154.515625 C 206.710938 154.425781 206.769531 154.335938 206.828125 154.238281 C 206.855469 154.195312 206.847656 154.152344 206.867188 154.109375 C 207.050781 153.90625 207.167969 153.640625 207.160156 153.304688 C 207 146.863281 190.941406 150.511719 189.816406 155.21875 C 189.695312 155.71875 190.25 156.1875 190.695312 155.996094 C 190.726562 155.992188 190.75 156.011719 190.78125 156 C 193.191406 155.261719 195.195312 153.996094 197.761719 153.691406 C 200.519531 153.363281 202.703125 154.332031 205.238281 155.09375 C 205.789062 155.257812 206.351562 154.984375 206.652344 154.515625 " fill-opacity="1" fill-rule="nonzero"/><path fill="#a05f83" d="M 104.371094 132.539062 C 106.132812 135.195312 108.703125 134.917969 111.542969 134.1875 C 117.070312 132.773438 122.527344 130.570312 128.015625 128.945312 C 141.6875 124.890625 154.71875 119.96875 167.96875 114.761719 C 181.144531 109.582031 194.148438 106.664062 208.199219 105.21875 C 210.507812 104.984375 213.910156 105.519531 214.714844 102.601562 C 215.339844 100.328125 211.992188 100.351562 210.710938 100.523438 C 193.242188 99.769531 174.964844 102.425781 157.96875 105.984375 C 141.300781 109.472656 123.375 110.375 107.710938 117.453125 C 106.949219 117.792969 106.917969 118.910156 107.453125 119.445312 C 106.769531 118.757812 106.117188 120.25 106.144531 121.246094 C 106.210938 123.996094 106.007812 125.847656 105.03125 128.421875 C 104.945312 128.644531 104.941406 128.863281 104.996094 129.0625 C 104.910156 129.730469 104.777344 130.398438 104.578125 131.039062 C 104.179688 131.410156 104.011719 131.996094 104.371094 132.539062 " fill-opacity="1" fill-rule="nonzero"/><path fill="#a05f83" d="M 181.25 256.457031 C 177.199219 255.964844 173.445312 255.175781 169.964844 253.96875 C 168.925781 251.742188 167.160156 249.785156 165.84375 247.730469 C 164.320312 245.351562 163.535156 243.089844 162.777344 240.425781 C 162.601562 239.816406 161.871094 239.808594 161.53125 240.265625 C 160.164062 242.109375 162.070312 245.230469 162.960938 246.890625 C 163.917969 248.679688 165.054688 250.746094 166.398438 252.539062 C 163.492188 251.199219 160.804688 249.496094 158.328125 247.355469 C 157.425781 243.570312 154.980469 240.253906 154.511719 236.261719 C 154.394531 235.257812 152.816406 235.222656 152.90625 236.261719 C 153.109375 238.640625 153.746094 241.332031 154.773438 243.804688 C 153.730469 242.609375 152.734375 241.316406 151.78125 239.910156 C 151.097656 238.90625 150.382812 237.941406 149.636719 237.007812 C 149.675781 236.902344 149.699219 236.792969 149.679688 236.675781 C 149.074219 233.261719 147.320312 229.859375 148.09375 226.332031 C 148.308594 225.335938 146.789062 224.910156 146.5625 225.910156 C 145.925781 228.695312 146.496094 231.699219 147.449219 234.460938 C 146.539062 233.472656 145.585938 232.519531 144.585938 231.59375 C 142.394531 229.574219 139.671875 228.496094 137.210938 226.988281 C 138.121094 224.316406 137.746094 220.097656 138.324219 217.703125 C 139.867188 213.335938 143.304688 210.128906 145.582031 206.015625 C 147.859375 201.910156 147.382812 200.925781 146.449219 196.167969 C 144.742188 188.035156 151.902344 184.019531 149.816406 175.582031 C 148.617188 171.554688 144.929688 169.921875 147.082031 164.789062 C 148.878906 160.59375 154.929688 160.277344 155.933594 156.320312 C 156.390625 156.199219 156.855469 156.101562 157.34375 156.042969 C 160.425781 155.667969 162.878906 156.683594 165.714844 157.519531 C 166.292969 157.691406 166.796875 157.367188 167.128906 156.914062 C 167.199219 156.816406 167.269531 156.703125 167.34375 156.605469 C 167.398438 156.53125 167.390625 156.449219 167.417969 156.371094 C 167.582031 156.179688 167.691406 155.925781 167.675781 155.609375 C 167.519531 151.277344 160.777344 151.195312 155.328125 152.949219 C 154.570312 151.066406 153.460938 148.835938 153.277344 147.324219 C 152.894531 144.242188 153.195312 141.070312 154.910156 138.074219 C 156.179688 135.972656 158.042969 134.1875 160.128906 132.585938 C 147.59375 137.199219 135.332031 142.683594 123.421875 148.679688 C 120.746094 150.023438 118.15625 151.5 115.605469 153.019531 C 115.582031 154.335938 115.660156 155.714844 115.84375 157.171875 C 116.523438 162.65625 117.847656 167.707031 113.554688 172.414062 C 108.234375 177.246094 103.523438 175.742188 104.285156 184.695312 C 105.046875 193.644531 103.9375 190.300781 98.011719 195.90625 C 90.804688 202.363281 99.164062 202.375 100.230469 208.15625 C 101.042969 211.878906 94.992188 219.238281 92.5 221.636719 C 90.085938 224.019531 87.011719 225.179688 83.941406 226.457031 C 82.203125 227.175781 78.347656 228.433594 78.699219 230.910156 C 78.941406 232.582031 81.878906 233.804688 83.199219 234.390625 C 90.175781 237.472656 98.949219 234.230469 105.847656 232.359375 C 112.589844 230.53125 120.976562 226.574219 128.109375 228.007812 C 132.394531 228.867188 134.148438 231.789062 136.511719 228.363281 C 136.609375 228.242188 136.695312 228.101562 136.777344 227.960938 C 138.375 228.9375 140.085938 229.757812 141.75 230.753906 C 144.398438 232.339844 146.507812 234.554688 148.425781 236.972656 C 145.5625 235.546875 141.359375 235.316406 138.761719 236.277344 C 138.1875 236.492188 138.222656 237.5 138.917969 237.421875 C 140.839844 237.21875 142.65625 237.191406 144.570312 237.523438 C 146.375 237.835938 148.03125 238.726562 149.816406 239.023438 C 149.875 239.03125 149.929688 239.03125 149.984375 239.023438 C 151.78125 241.472656 153.484375 244.011719 155.417969 246.261719 C 153.089844 245.648438 150.511719 245.613281 148.199219 245.464844 C 147.34375 245.40625 147.398438 246.648438 148.199219 246.757812 C 151.140625 247.152344 154.105469 247.777344 157.0625 248.019531 C 157.160156 248.113281 157.25 248.214844 157.347656 248.308594 C 157.46875 248.464844 157.59375 248.621094 157.71875 248.765625 C 157.820312 248.878906 157.929688 248.917969 158.035156 248.917969 C 160.429688 251.03125 163.125 252.636719 166.011719 253.851562 C 165.195312 253.945312 164.386719 254.082031 163.636719 254.167969 C 161.109375 254.460938 158.574219 254.78125 156.027344 254.929688 C 155.074219 254.984375 155.0625 256.386719 156.027344 256.417969 C 158.574219 256.496094 161.105469 256.210938 163.636719 255.976562 C 165.359375 255.816406 167.40625 255.914062 169.089844 255.347656 C 169.363281 255.4375 169.683594 255.398438 169.917969 255.25 C 173.59375 256.367188 177.449219 257.03125 181.246094 257.492188 C 181.910156 257.570312 181.902344 256.535156 181.25 256.457031 " fill-opacity="1" fill-rule="nonzero"/><path fill="#a05f83" d="M 199.832031 231.636719 C 198.390625 232.835938 197.117188 234.363281 195.960938 235.960938 C 197.296875 231.464844 197.648438 226.785156 195.898438 221.625 C 195.683594 220.996094 194.683594 221.265625 194.898438 221.898438 C 196.632812 227 196.230469 231.652344 194.859375 236.121094 C 194.652344 234.183594 193.742188 232.113281 193.050781 230.597656 C 192.628906 229.664062 191.144531 230.332031 191.421875 231.28125 C 191.78125 232.515625 192.207031 233.722656 192.53125 234.964844 C 192.871094 236.25 192.917969 237.675781 193.535156 238.867188 C 193.589844 238.976562 193.691406 239.050781 193.808594 239.09375 C 193.792969 239.136719 193.773438 239.183594 193.757812 239.226562 C 193.703125 239.3125 193.644531 239.402344 193.589844 239.484375 C 193.519531 239.589844 193.507812 239.699219 193.523438 239.800781 C 193.023438 241.003906 192.476562 242.203125 191.902344 243.398438 C 191.894531 241.933594 191.703125 240.457031 191.535156 239.160156 C 191.421875 238.261719 190.226562 238.246094 190.125 239.160156 C 189.964844 240.640625 190.117188 242.125 190.117188 243.613281 C 190.121094 245.050781 189.742188 246.429688 189.613281 247.851562 C 189.605469 247.90625 189.617188 247.953125 189.625 248 C 188.554688 250.140625 187.503906 252.300781 186.605469 254.507812 C 186.351562 255.125 187.355469 255.390625 187.601562 254.78125 C 188.488281 252.609375 189.507812 250.488281 190.546875 248.390625 C 190.644531 248.34375 190.730469 248.28125 190.796875 248.183594 C 193.757812 246.566406 196.433594 243.960938 198.996094 241.808594 C 199.351562 241.503906 198.972656 240.871094 198.535156 241.023438 C 196.128906 241.851562 193.988281 243.582031 192.039062 245.382812 C 192.9375 243.558594 193.800781 241.738281 194.558594 239.902344 C 196.71875 237.589844 199.085938 234.972656 200.457031 232.117188 C 200.65625 231.699219 200.183594 231.34375 199.832031 231.636719 " fill-opacity="1" fill-rule="nonzero"/><path fill="#a05f83" d="M 183.484375 256.496094 C 186.730469 268.882812 187.070312 282.785156 181.75 294.65625 C 181.480469 295.261719 182.375 295.789062 182.644531 295.179688 C 188.089844 283.03125 187.808594 268.914062 184.484375 256.222656 C 184.316406 255.574219 183.316406 255.851562 183.484375 256.496094 " fill-opacity="1" fill-rule="nonzero"/><path fill="#a05f83" d="M 164.640625 194.089844 C 164.625 193.324219 163.390625 193.09375 163.257812 193.902344 C 162.582031 197.953125 166.722656 199.996094 169.964844 201.058594 C 173.617188 202.25 180.46875 203.75 184.011719 201.597656 C 184.441406 201.335938 184.226562 200.75 183.769531 200.707031 C 178.828125 200.246094 164.800781 201.792969 164.640625 194.089844 " fill-opacity="1" fill-rule="nonzero"/><path fill="#d26f7a" d="M 175.429688 222.429688 C 166.515625 221.335938 156.964844 214.992188 150.15625 209.113281 C 149.292969 211.585938 147.410156 215.808594 147.507812 216.707031 C 147.992188 221.355469 156.273438 226.019531 159.460938 229.046875 C 164.488281 233.824219 169.308594 238.710938 172.84375 244.726562 C 175.433594 249.132812 180.109375 258.203125 184.777344 250.945312 C 188.148438 246.019531 186.332031 237.203125 187.371094 230.988281 C 188.015625 227.015625 189.109375 222.691406 190.496094 218.355469 C 185.945312 221.296875 180.847656 223.097656 175.429688 222.429688 " fill-opacity="1" fill-rule="nonzero"/><path fill="#d26f7a" d="M 185.0625 184.230469 C 185.441406 186.425781 181.753906 188.355469 180.300781 188.914062 C 179.902344 189.066406 179.703125 189.515625 179.855469 189.917969 C 179.972656 190.226562 180.269531 190.414062 180.578125 190.414062 C 180.675781 190.414062 180.765625 190.402344 180.855469 190.363281 C 181.121094 190.265625 187.273438 187.863281 186.59375 183.964844 C 186.140625 181.382812 185.011719 177.410156 183.808594 173.207031 C 181.839844 166.316406 179.617188 158.511719 179.824219 154.90625 C 179.851562 154.480469 179.523438 154.113281 179.097656 154.085938 C 178.628906 154.054688 178.300781 154.390625 178.273438 154.816406 C 178.046875 158.683594 180.3125 166.625 182.3125 173.632812 C 183.5 177.796875 184.625 181.730469 185.0625 184.230469 " fill-opacity="1" fill-rule="nonzero"/><path fill="#d26f7a" d="M 159.199219 164.070312 C 166.113281 163.675781 167.296875 167.929688 167.296875 167.929688 C 167.296875 167.929688 167.148438 161.261719 158.636719 162.382812 C 150.128906 163.503906 149.4375 168.941406 149.4375 168.941406 C 149.4375 168.941406 152.285156 164.460938 159.199219 164.070312 " fill-opacity="1" fill-rule="nonzero"/><path fill="#d26f7a" d="M 206.691406 164.574219 C 206.691406 164.574219 206.558594 158.589844 198.921875 159.59375 C 191.289062 160.601562 190.667969 165.480469 190.667969 165.480469 C 190.667969 165.480469 193.222656 161.460938 199.425781 161.109375 C 205.628906 160.757812 206.691406 164.574219 206.691406 164.574219 " fill-opacity="1" fill-rule="nonzero"/><path fill="#d26f7a" d="M 146.832031 141.203125 C 143.6875 142.773438 142.773438 145.101562 143.070312 148.546875 C 143.238281 150.445312 143.773438 152.28125 143.921875 154.195312 C 144.234375 158.316406 140.046875 159.023438 137.699219 161.035156 C 135.511719 162.910156 133.921875 165.964844 135.191406 168.867188 C 137.375 173.855469 143.425781 180.863281 135.746094 184.445312 C 124.792969 189.550781 139.480469 200.707031 133.863281 207.207031 C 131.628906 209.789062 128 210.664062 125.84375 213.40625 C 123.875 215.90625 124.8125 219.121094 126.429688 221.492188 C 126.976562 222.296875 128.445312 221.816406 128.085938 220.792969 C 127.316406 218.601562 126.300781 216.457031 127.964844 214.355469 C 129.019531 213.027344 130.800781 212.175781 132.210938 211.277344 C 134.597656 209.757812 136.421875 208.105469 137.292969 205.363281 C 138.238281 202.40625 136.152344 198.832031 135 196.238281 C 133.457031 192.769531 132.265625 188.386719 136.785156 186.21875 C 138.355469 185.460938 139.417969 184.761719 140.542969 183.402344 C 142.265625 181.320312 141.417969 177.433594 140.84375 175.097656 C 140.449219 173.488281 139.472656 172.054688 138.535156 170.726562 C 135.984375 167.105469 137.277344 163.367188 140.886719 161.207031 C 143.105469 159.875 145.484375 158.121094 145.546875 155.246094 C 145.660156 150.207031 142.710938 145.921875 147.195312 141.671875 C 147.453125 141.429688 147.125 141.054688 146.832031 141.203125 " fill-opacity="1" fill-rule="nonzero"/><path fill="#d26f7a" d="M 115.539062 192.046875 C 116.539062 190.6875 115.902344 188.605469 114.929688 187.449219 C 113.050781 185.230469 110.644531 182.746094 113.113281 179.839844 C 114.554688 178.140625 116.695312 176.921875 118.511719 175.65625 C 125.46875 170.828125 128.191406 163.234375 125.976562 154.863281 C 125.914062 154.628906 125.59375 154.695312 125.578125 154.914062 C 125.152344 161.003906 125.320312 167.558594 120.210938 171.820312 C 117.171875 174.347656 113.519531 176.042969 110.925781 179.09375 C 109.519531 180.746094 109.253906 182.679688 109.945312 184.671875 C 110.324219 185.765625 111.316406 186.707031 112.085938 187.523438 C 115.019531 190.628906 111.402344 192.839844 109.167969 194.167969 C 107.160156 195.363281 106.148438 196.753906 105.980469 199.042969 C 105.585938 204.265625 113.035156 205.972656 107.273438 211.691406 C 104.585938 214.359375 101.878906 216.007812 99.972656 219.394531 C 98.070312 222.773438 97.605469 227.011719 98.585938 230.710938 C 98.835938 231.65625 100.304688 231.464844 100.289062 230.480469 C 100.1875 224.523438 101.203125 219.625 105.933594 215.644531 C 108.609375 213.394531 111.292969 211.488281 111.933594 207.871094 C 112.421875 205.136719 110.078125 202.742188 108.746094 200.652344 C 106.289062 196.800781 113.75 194.480469 115.539062 192.046875 " fill-opacity="1" fill-rule="nonzero"/><path fill="#d26f7a" d="M 125.757812 186.320312 C 126.828125 185.316406 127.851562 183.917969 127.792969 182.367188 C 127.671875 179.230469 127.292969 176.558594 127.929688 173.398438 C 128.5625 170.285156 130.421875 167.664062 131.457031 164.710938 C 131.539062 164.476562 131.214844 164.308594 131.050781 164.476562 C 127.578125 168.03125 126.148438 173.25 125.894531 178.097656 C 125.746094 180.960938 127.339844 182.09375 124.527344 185.085938 C 123.71875 185.945312 122.796875 186.671875 121.996094 187.542969 C 120.574219 189.078125 120.3125 191.175781 120.3125 193.167969 C 120.308594 195.855469 121.636719 198.507812 121.898438 201.179688 C 122.21875 204.441406 118.894531 207.738281 117.152344 210.171875 C 114.402344 214.011719 113.160156 218.066406 115.5 222.375 C 116.007812 223.3125 117.652344 222.65625 117.25 221.640625 C 114.832031 215.550781 118.679688 211.539062 121.941406 206.828125 C 124.496094 203.136719 123.742188 199.671875 122.632812 195.605469 C 121.511719 191.5 122.898438 189.015625 125.757812 186.320312 " fill-opacity="1" fill-rule="nonzero"/><path fill="#d26f7a" d="M 236.953125 222.738281 C 232.390625 219.335938 232.410156 215.742188 231.53125 210.628906 C 230.863281 206.761719 228.472656 204.121094 225.585938 201.648438 C 224 200.289062 222.367188 199.0625 221.109375 197.371094 C 218.828125 194.300781 221.167969 190.242188 222.84375 187.492188 C 224.667969 184.488281 223.679688 181.304688 221.714844 178.625 C 220.6875 177.222656 219.09375 176.222656 217.761719 175.136719 C 214.089844 172.15625 214.351562 167.71875 215.105469 163.539062 C 216 158.597656 217.367188 154.238281 216.824219 149.179688 C 216.042969 141.835938 213.632812 132.238281 205.851562 129.492188 C 205.625 129.414062 205.433594 129.742188 205.613281 129.898438 C 215.082031 138.074219 216.28125 149.960938 213.363281 161.476562 C 212.453125 165.066406 211.382812 170.09375 213.53125 173.492188 C 216.378906 177.996094 224.101562 180.964844 220.257812 187.222656 C 218.363281 190.304688 217.109375 193.921875 218.433594 197.429688 C 219.644531 200.636719 223.238281 202.726562 225.636719 204.941406 C 231.601562 210.453125 227.46875 221.402344 236.175781 224.585938 C 237.339844 225.015625 237.800781 223.371094 236.953125 222.738281 " fill-opacity="1" fill-rule="nonzero"/><path fill="#d26f7a" d="M 216.179688 207.421875 C 211.1875 202.425781 210.714844 193.261719 213.402344 186.949219 C 213.667969 186.332031 212.894531 185.859375 212.496094 186.421875 C 209.421875 190.730469 209.640625 196.859375 210.527344 201.84375 C 211.003906 204.535156 212.886719 206.964844 214.667969 208.929688 C 217.320312 211.859375 218.929688 213.964844 220.167969 217.820312 C 220.460938 218.738281 221.746094 218.535156 221.804688 217.601562 C 222.097656 213.132812 219.109375 210.347656 216.179688 207.421875 " fill-opacity="1" fill-rule="nonzero"/><path fill="#d26f7a" d="M 206.273438 206.1875 C 206.628906 205.453125 205.605469 204.835938 205.167969 205.542969 C 203.277344 208.601562 203.398438 213.554688 206.898438 215.460938 C 207.332031 215.695312 207.851562 215.214844 207.585938 214.773438 C 205.949219 212.054688 204.761719 209.285156 206.273438 206.1875 " fill-opacity="1" fill-rule="nonzero"/></svg>