<svg xmlns="http://www.w3.org/2000/svg" xmlns:xlink="http://www.w3.org/1999/xlink" width="450" zoomAndPan="magnify" viewBox="0 0 337.5 337.500003" height="450" preserveAspectRatio="xMidYMid meet" version="1.0"><defs><clipPath id="a913b9a425"><path d="M 65.191406 191 L 288.363281 191 L 288.363281 299.089844 L 65.191406 299.089844 Z M 65.191406 191 " clip-rule="nonzero"/></clipPath></defs><path fill="#8cb89f" d="M 90.277344 187.125 C 114.914062 181.355469 138.523438 171.640625 162.492188 165.820312 C 186.464844 159.992188 210.375 154.941406 232.710938 144.347656 C 242.421875 140.484375 286.300781 120.785156 279.640625 103.246094 C 274.007812 89.652344 230.675781 102.433594 221.085938 104.761719 C 218.960938 105.109375 216.789062 105.476562 214.585938 105.863281 C 207.007812 91.175781 201.875 74.894531 191.925781 61.753906 C 182.84375 50.179688 166.355469 43.832031 150.527344 39.332031 C 149.605469 38.886719 148.621094 38.605469 147.574219 38.507812 C 137.589844 37.359375 122.488281 50.019531 116.363281 55.222656 C 113.308594 57.753906 110.496094 60.40625 107.84375 63.179688 C 97.058594 74.390625 88.945312 87.269531 79.324219 99.828125 C 76.449219 103.746094 67.855469 112.863281 71.773438 118.613281 C 76.449219 125.121094 89.507812 114.695312 93.925781 112.082031 C 100.496094 108.203125 107.34375 105.007812 114.3125 102.09375 C 113.640625 113.5 111.734375 125.382812 109.960938 136.5 C 94.132812 144.296875 77.738281 154.828125 67.59375 168.304688 C 48.101562 193.816406 73.164062 191.171875 90.277344 187.125 " fill-opacity="1" fill-rule="nonzero"/><g clip-path="url(#a913b9a425)"><path fill="#8cb89f" d="M 288.285156 274.523438 C 287.445312 268.738281 280.160156 262.789062 276.738281 259.488281 C 269.238281 252.253906 260.644531 242.675781 251.742188 237.269531 C 237.179688 228.230469 215.585938 212.660156 197.507812 218.183594 C 197.507812 209.144531 200.019531 200.101562 200.019531 191.058594 L 143.265625 200.242188 C 143.265625 206.265625 140.265625 213.664062 136.246094 218.183594 C 132.734375 223.207031 121.183594 225.71875 115.660156 228.730469 C 94.570312 239.78125 67.453125 261.882812 65.445312 287.5 L 65.667969 287.484375 C 64.769531 292.519531 73.890625 297.207031 78.5 298.046875 C 90.554688 300.054688 104.613281 298.550781 117.164062 298.550781 C 153.320312 298.550781 189.976562 297.042969 225.628906 294.027344 C 237.097656 293.238281 248.578125 291.871094 259.761719 289.167969 C 267.0625 287.402344 285.996094 285.894531 288.171875 277.199219 C 288.390625 276.320312 288.414062 275.421875 288.285156 274.523438 " fill-opacity="1" fill-rule="nonzero"/></g><path fill="#f68586" d="M 202.222656 131.878906 C 199.550781 128.894531 195.433594 125.945312 191.292969 124.179688 C 182.652344 126.417969 174.125 129.074219 165.671875 132.070312 C 157.046875 135.144531 148.546875 138.648438 140.203125 142.46875 C 138.621094 145.679688 137.320312 148.890625 136.316406 151.820312 C 135.726562 156.015625 136.015625 160.554688 136.644531 165.125 C 134.964844 165.558594 133.417969 166.453125 132.480469 167.703125 C 128.199219 173.597656 133.9375 178.34375 139.511719 181.863281 C 140.859375 190.953125 140.609375 197.097656 147.859375 203.433594 C 155.78125 210.359375 164.714844 216.3125 174.824219 219.449219 C 177.566406 220.304688 180.449219 221.140625 183.363281 220.914062 C 184.640625 220.816406 185.847656 220.589844 187.011719 220.261719 C 191.148438 218.335938 200.152344 213 203.09375 209.015625 C 209.375 201.050781 209.0625 195.980469 210.816406 186.335938 C 213.921875 169.285156 214.796875 145.921875 202.222656 131.878906 " fill-opacity="1" fill-rule="nonzero"/><path fill="#d6e1d6" d="M 152.785156 167.136719 C 152.5625 167.519531 152.578125 168.160156 152.957031 168.460938 C 155.609375 170.546875 159.089844 171.140625 162.375 170.519531 C 164.496094 170.121094 167.191406 168.914062 168.101562 168.269531 C 169.015625 167.625 169.808594 167.351562 169.308594 166.492188 C 166.035156 160.820312 155.914062 161.78125 152.785156 167.136719 " fill-opacity="1" fill-rule="nonzero"/><path fill="#d6e1d6" d="M 192.675781 163.910156 C 192.472656 164.257812 192.484375 164.828125 192.828125 165.101562 C 195.273438 167.023438 198.496094 167.476562 201.527344 166.898438 C 205.574219 166.128906 207.335938 164.101562 207.539062 163.824219 C 207.621094 163.710938 207.628906 163.5625 207.496094 163.335938 C 204.558594 158.246094 195.480469 159.109375 192.675781 163.910156 " fill-opacity="1" fill-rule="nonzero"/><path fill="#d6e1d6" d="M 214.546875 93.945312 C 212.234375 93.742188 209.945312 93.832031 207.660156 94.085938 C 209.34375 93.074219 211.125 92.164062 212.972656 91.292969 C 213.558594 91.015625 213.050781 90.152344 212.464844 90.425781 C 211.492188 90.882812 210.535156 91.359375 209.601562 91.851562 C 210.433594 90.652344 211.210938 89.417969 212.054688 88.226562 C 212.429688 87.695312 211.558594 87.195312 211.1875 87.71875 C 209.972656 89.433594 208.917969 91.261719 207.589844 92.902344 C 207.570312 92.925781 207.566406 92.957031 207.546875 92.980469 C 206.773438 93.433594 206.023438 93.90625 205.292969 94.402344 C 205.285156 94.402344 205.28125 94.402344 205.277344 94.40625 C 205.105469 94.433594 205.003906 94.523438 204.953125 94.640625 C 204.179688 95.179688 203.429688 95.75 202.714844 96.355469 C 203.671875 94.171875 204.199219 91.808594 204.761719 89.484375 C 204.914062 88.855469 203.945312 88.589844 203.792969 89.21875 C 203.035156 92.335938 202.375 95.539062 200.550781 98.230469 C 200.488281 98.320312 200.472656 98.402344 200.46875 98.480469 C 199.929688 99.066406 199.414062 99.683594 198.925781 100.328125 C 199.144531 95.390625 200.5 90.566406 202.054688 85.894531 C 202.257812 85.277344 201.289062 85.015625 201.085938 85.625 C 199.859375 89.308594 198.769531 93.085938 198.234375 96.9375 C 198.03125 95.851562 197.804688 94.769531 197.582031 93.6875 C 197.597656 93.585938 197.578125 93.484375 197.519531 93.382812 C 197.296875 92.292969 197.082031 91.207031 196.902344 90.121094 C 196.898438 86.988281 198.410156 84.222656 199.96875 81.53125 C 200.289062 80.96875 199.421875 80.460938 199.101562 81.023438 C 198.082031 82.78125 197.085938 84.585938 196.480469 86.488281 C 196.300781 83.308594 196.734375 80.152344 198.539062 76.992188 C 198.863281 76.429688 197.992188 75.921875 197.671875 76.484375 C 195.105469 80.972656 195.183594 85.355469 195.894531 89.792969 C 195.882812 90.222656 195.894531 90.660156 195.941406 91.101562 C 195.960938 91.285156 196.0625 91.410156 196.191406 91.488281 C 196.234375 91.730469 196.28125 91.96875 196.328125 92.207031 C 195.503906 91.484375 194.644531 90.796875 193.894531 89.996094 C 193.449219 89.519531 192.742188 90.234375 193.183594 90.707031 C 194.265625 91.863281 195.578125 92.773438 196.671875 93.917969 C 197.042969 95.75 197.417969 97.601562 197.660156 99.480469 C 196.457031 98.15625 194.863281 97.132812 193.605469 95.898438 C 193.144531 95.445312 192.433594 96.15625 192.894531 96.609375 C 194.515625 98.199219 196.75 99.425781 197.855469 101.464844 C 197.863281 101.597656 197.875 101.726562 197.882812 101.855469 C 197.46875 102.515625 197.070312 103.199219 196.710938 103.929688 C 196.425781 104.507812 197.292969 105.015625 197.578125 104.4375 C 197.691406 104.210938 197.8125 104 197.929688 103.78125 C 197.976562 104.371094 198.914062 104.355469 198.921875 103.726562 C 198.925781 103.554688 198.925781 103.386719 198.921875 103.214844 C 201.371094 102.417969 203.792969 101.550781 206.246094 100.78125 C 206.859375 100.582031 206.597656 99.613281 205.980469 99.808594 C 203.605469 100.558594 201.261719 101.394531 198.898438 102.167969 C 198.894531 102.152344 198.894531 102.140625 198.894531 102.128906 C 200.714844 99.339844 203.042969 97.175781 205.6875 95.355469 C 208.636719 94.90625 211.566406 94.691406 214.546875 94.953125 C 215.191406 95.007812 215.1875 94.003906 214.546875 93.945312 " fill-opacity="1" fill-rule="nonzero"/><path fill="#a05f83" d="M 162.257812 166.894531 C 161.21875 166.894531 161.21875 164.835938 162.257812 164.835938 C 163.824219 164.835938 162.257812 166.894531 162.257812 166.894531 Z M 163.765625 163.765625 C 163.140625 163.707031 162.445312 163.691406 161.683594 163.730469 C 161.023438 163.769531 160.398438 163.847656 159.8125 163.957031 C 158.464844 164.816406 157.667969 166.871094 158.214844 168.300781 C 159.167969 170.769531 162.519531 171.3125 164.371094 169.59375 C 166.011719 168.066406 165.839844 165.246094 164.035156 163.945312 C 163.945312 163.882812 163.851562 163.820312 163.765625 163.765625 " fill-opacity="1" fill-rule="nonzero"/><path fill="#a05f83" d="M 169.355469 158.765625 C 169.425781 158.671875 169.496094 158.574219 169.566406 158.480469 C 169.632812 158.390625 169.671875 158.292969 169.695312 158.199219 C 169.824219 158.023438 169.894531 157.800781 169.886719 157.53125 C 169.636719 150.75 152.667969 154.742188 151.382812 159.621094 C 151.246094 160.136719 151.652344 160.429688 152.050781 160.390625 C 152.140625 160.414062 152.234375 160.421875 152.335938 160.386719 C 154.929688 159.511719 157.105469 158.179688 159.890625 157.835938 C 162.878906 157.460938 165.253906 158.503906 168.003906 159.316406 C 168.554688 159.480469 169.039062 159.199219 169.355469 158.765625 " fill-opacity="1" fill-rule="nonzero"/><path fill="#a05f83" d="M 201.347656 161.851562 C 202.390625 161.851562 201.347656 163.695312 201.347656 163.695312 C 199.785156 163.695312 199.785156 161.851562 201.347656 161.851562 Z M 203.046875 166.289062 C 204.703125 164.925781 204.511719 162.179688 202.84375 160.957031 C 202.824219 160.945312 202.808594 160.933594 202.785156 160.917969 C 202.15625 160.839844 201.449219 160.8125 200.660156 160.859375 C 199.972656 160.898438 199.328125 160.984375 198.738281 161.105469 C 197.664062 161.941406 197.042969 163.636719 197.386719 164.84375 C 198.078125 167.265625 201.304688 167.714844 203.046875 166.289062 " fill-opacity="1" fill-rule="nonzero"/><path fill="#a05f83" d="M 191.347656 157.152344 C 191.226562 157.664062 191.832031 158.179688 192.269531 157.914062 C 192.277344 157.910156 192.28125 157.914062 192.285156 157.910156 C 194.617188 157.195312 196.5625 155.976562 199.046875 155.667969 C 201.722656 155.335938 203.835938 156.277344 206.292969 157.019531 C 206.820312 157.175781 207.359375 156.914062 207.644531 156.464844 C 207.699219 156.378906 207.757812 156.289062 207.816406 156.199219 C 207.855469 156.140625 207.875 156.082031 207.898438 156.019531 C 208.050781 155.835938 208.144531 155.59375 208.136719 155.300781 C 207.980469 149.074219 192.4375 152.605469 191.347656 157.152344 " fill-opacity="1" fill-rule="nonzero"/><path fill="#a05f83" d="M 175.257812 198.519531 C 181.183594 199.777344 189.066406 200.621094 194.128906 196.601562 C 194.554688 196.261719 194.09375 195.578125 193.617188 195.722656 C 190.320312 196.714844 187.453125 197.785156 183.9375 197.882812 C 181.085938 197.964844 178.257812 197.402344 175.414062 197.363281 C 174.757812 197.355469 174.597656 198.378906 175.257812 198.519531 " fill-opacity="1" fill-rule="nonzero"/><path fill="#a05f83" d="M 141.808594 194.894531 C 141.445312 189.992188 140.421875 186.253906 139.40625 181.796875 C 133.867188 178.289062 128.222656 173.558594 132.480469 167.703125 C 134.210938 165.402344 138 164.269531 140.921875 165.105469 C 142.132812 164.242188 143.078125 163.429688 142.480469 160.777344 C 140.054688 150.628906 154.75 142.902344 162.625 139.261719 C 166.867188 137.449219 172.621094 136.6875 175.496094 132.75 C 176.324219 131.535156 176.695312 129.984375 176.722656 128.367188 C 173.019531 129.535156 169.34375 130.769531 165.671875 132.070312 C 152.457031 136.777344 139.542969 142.5 127.027344 148.808594 C 124.847656 149.90625 122.726562 151.089844 120.644531 152.316406 C 118.882812 156.449219 117.746094 160.921875 117.347656 165.273438 C 117.207031 168.648438 117.347656 172.023438 118.335938 175.113281 C 119.179688 177.644531 121.117188 181.433594 122.667969 177.769531 C 124.910156 180.726562 124.9375 183.269531 128.730469 184.953125 C 129.4375 185.234375 131.6875 186.222656 132.527344 185.941406 C 132.542969 185.933594 132.546875 185.929688 132.558594 185.929688 C 133.0625 186.644531 133.585938 187.351562 134.152344 188.042969 C 136.574219 190.917969 138.480469 193.078125 141.808594 194.894531 " fill-opacity="1" fill-rule="nonzero"/><path fill="#a05f83" d="M 220.28125 141.992188 C 219.167969 134.566406 214.347656 127.886719 208.035156 123.429688 C 206.921875 122.75 205.691406 121.96875 204.363281 121.140625 C 195.796875 122.898438 187.355469 125.097656 179.011719 127.65625 C 179.980469 128.996094 180.554688 130.660156 180.621094 132.105469 C 180.921875 136.921875 177.160156 137.824219 175.808594 141.734375 C 174.003906 146.550781 181.375 142.035156 182.582031 139.929688 C 183.929688 137.671875 186.1875 132.859375 186.1875 130.300781 C 189.796875 129.847656 189.195312 135.414062 189.046875 137.523438 C 191.003906 137.972656 193.109375 134.515625 193.554688 132.859375 C 194.160156 130.75 193.554688 128.195312 192.804688 126.234375 C 192.585938 125.730469 192.144531 125.039062 191.5625 124.296875 C 195.609375 126.074219 199.605469 128.957031 202.222656 131.878906 C 211.277344 141.992188 213.355469 156.933594 212.652344 170.875 C 216.953125 161.710938 221.714844 151.738281 220.28125 141.992188 " fill-opacity="1" fill-rule="nonzero"/><path fill="#a05f83" d="M 170.183594 115.902344 C 182.949219 110.878906 195.546875 108.050781 209.160156 106.648438 C 211.394531 106.421875 214.691406 106.9375 215.46875 104.109375 C 216.074219 101.902344 212.832031 101.929688 211.589844 102.09375 C 194.667969 101.363281 176.960938 103.9375 160.496094 107.390625 C 144.347656 110.777344 126.980469 111.648438 111.804688 118.511719 C 111.070312 118.847656 111.042969 119.925781 111.558594 120.445312 C 110.894531 119.78125 110.265625 121.230469 110.289062 122.195312 C 110.355469 124.863281 110.160156 126.65625 109.210938 129.152344 C 109.128906 129.371094 109.125 129.582031 109.175781 129.773438 C 109.09375 130.421875 108.96875 131.066406 108.773438 131.691406 C 108.390625 132.050781 108.222656 132.621094 108.574219 133.148438 C 110.28125 135.726562 112.769531 135.453125 115.523438 134.746094 C 120.875 133.375 126.160156 131.238281 131.476562 129.660156 C 144.722656 125.730469 157.347656 120.953125 170.183594 115.902344 " fill-opacity="1" fill-rule="nonzero"/><path fill="#a05f83" d="M 148.089844 229.757812 C 148.613281 229.824219 149.140625 229.847656 149.660156 229.8125 C 149.839844 230.558594 150.058594 231.289062 150.308594 232.007812 C 149.59375 231.234375 148.851562 230.488281 148.089844 229.757812 Z M 183.050781 253.34375 C 178.34375 252.773438 174.042969 251.78125 170.136719 250.179688 C 169.261719 248.492188 168.171875 246.878906 167.34375 245.175781 C 166.144531 242.703125 165.863281 240.359375 165.152344 237.792969 C 164.988281 237.195312 164.277344 237.203125 163.949219 237.636719 C 162.570312 239.453125 164.191406 242.804688 164.910156 244.574219 C 165.414062 245.804688 165.980469 247.203125 166.664062 248.539062 C 164.601562 247.421875 162.664062 246.09375 160.84375 244.515625 C 159.96875 240.84375 157.601562 237.625 157.148438 233.753906 C 157.035156 232.78125 155.507812 232.746094 155.59375 233.753906 C 155.789062 236.0625 156.40625 238.675781 157.398438 241.070312 C 156.390625 239.914062 155.425781 238.65625 154.5 237.292969 C 153.839844 236.320312 153.148438 235.386719 152.421875 234.480469 C 152.460938 234.378906 152.484375 234.269531 152.464844 234.15625 C 151.878906 230.84375 150.183594 227.546875 150.929688 224.121094 C 151.085938 223.410156 150.320312 223 149.824219 223.226562 C 149.390625 221.699219 148.980469 220.160156 148.382812 218.691406 C 148.082031 217.960938 147.035156 218.226562 147.1875 219.023438 C 147.472656 220.507812 147.925781 221.957031 148.339844 223.410156 C 148.605469 224.367188 148.832031 225.390625 149.191406 226.335938 C 149.203125 227.027344 149.269531 227.722656 149.378906 228.414062 C 148.257812 228.070312 147.074219 227.832031 145.964844 227.492188 C 145.371094 227.308594 144.785156 227.101562 144.203125 226.890625 C 141.714844 225.476562 139.078125 224.351562 137.105469 222.097656 C 136.675781 221.609375 135.96875 222.320312 136.394531 222.808594 C 137.515625 224.085938 138.824219 225.027344 140.21875 225.855469 C 139.890625 226.234375 139.925781 226.980469 140.550781 227.210938 C 142.28125 227.855469 144.21875 228.792969 146.179688 229.355469 C 148.109375 230.773438 149.742188 232.539062 151.25 234.445312 C 148.480469 233.0625 144.40625 232.835938 141.890625 233.773438 C 141.335938 233.976562 141.363281 234.957031 142.039062 234.882812 C 143.90625 234.683594 145.660156 234.65625 147.519531 234.976562 C 149.261719 235.28125 150.867188 236.144531 152.597656 236.433594 C 152.652344 236.441406 152.707031 236.441406 152.757812 236.433594 C 154.5 238.808594 156.152344 241.273438 158.023438 243.453125 C 155.769531 242.859375 153.269531 242.828125 151.03125 242.683594 C 150.207031 242.625 150.257812 243.832031 151.03125 243.9375 C 153.878906 244.320312 156.753906 244.925781 159.617188 245.160156 C 159.710938 245.25 159.800781 245.351562 159.894531 245.441406 C 160.015625 245.589844 160.132812 245.742188 160.257812 245.886719 C 160.351562 245.992188 160.457031 246.035156 160.558594 246.035156 C 162.773438 247.988281 165.253906 249.488281 167.90625 250.648438 C 168.144531 250.988281 168.394531 251.316406 168.65625 251.625 C 167.371094 251.277344 165.984375 251.46875 164.65625 251.535156 C 162.640625 251.636719 160.628906 251.738281 158.617188 251.863281 C 157.6875 251.917969 157.683594 253.257812 158.617188 253.304688 C 160.386719 253.394531 162.148438 253.355469 163.921875 253.3125 C 165.628906 253.269531 167.550781 253.472656 169.152344 252.816406 C 169.328125 252.746094 169.441406 252.625 169.492188 252.484375 C 169.523438 252.511719 169.554688 252.542969 169.585938 252.574219 C 170.113281 253.027344 171.191406 252.605469 170.886719 251.816406 C 170.882812 251.804688 170.878906 251.796875 170.871094 251.789062 C 174.789062 253.109375 178.949219 253.851562 183.046875 254.347656 C 183.691406 254.425781 183.683594 253.417969 183.050781 253.34375 " fill-opacity="1" fill-rule="nonzero"/><path fill="#a05f83" d="M 201.050781 229.269531 C 199.65625 230.433594 198.421875 231.914062 197.300781 233.464844 C 198.59375 229.101562 198.9375 224.5625 197.242188 219.554688 C 197.035156 218.949219 196.0625 219.207031 196.273438 219.824219 C 197.949219 224.773438 197.5625 229.28125 196.234375 233.621094 C 196.035156 231.738281 195.152344 229.726562 194.484375 228.261719 C 194.074219 227.355469 192.636719 228.003906 192.90625 228.925781 C 193.253906 230.121094 193.664062 231.292969 193.980469 232.496094 C 194.308594 233.746094 194.355469 235.128906 194.949219 236.28125 C 195.003906 236.386719 195.105469 236.460938 195.21875 236.503906 C 195.199219 236.546875 195.183594 236.589844 195.167969 236.632812 C 195.113281 236.714844 195.054688 236.800781 195.003906 236.882812 C 194.9375 236.984375 194.925781 237.089844 194.941406 237.1875 C 194.433594 238.417969 193.871094 239.644531 193.285156 240.863281 C 193.292969 239.371094 193.15625 237.886719 193.015625 236.566406 C 192.921875 235.691406 191.734375 235.683594 191.652344 236.566406 C 191.488281 238.234375 191.570312 239.914062 191.503906 241.589844 C 191.449219 242.898438 191.203125 244.175781 191.003906 245.460938 C 190.023438 247.433594 189.0625 249.421875 188.238281 251.453125 C 187.992188 252.054688 188.964844 252.3125 189.207031 251.71875 C 189.855469 250.117188 190.585938 248.542969 191.339844 246.988281 C 191.59375 247.039062 191.886719 246.957031 192.023438 246.714844 C 192.316406 246.203125 192.542969 245.652344 192.722656 245.078125 C 195.425781 243.5 197.882812 241.121094 200.238281 239.132812 C 200.585938 238.839844 200.21875 238.226562 199.796875 238.371094 C 197.46875 239.175781 195.386719 240.855469 193.5 242.605469 C 194.371094 240.832031 195.210938 239.066406 195.941406 237.285156 C 198.03125 235.042969 200.332031 232.507812 201.65625 229.734375 C 201.847656 229.332031 201.390625 228.984375 201.050781 229.269531 " fill-opacity="1" fill-rule="nonzero"/><path fill="#a05f83" d="M 206.265625 224.066406 C 204.988281 224.796875 204.320312 226.261719 203.859375 227.644531 C 203.703125 227.082031 203.441406 226.535156 203.222656 226.027344 C 202.773438 224.976562 202.199219 223.945312 201.425781 223.097656 C 200.84375 222.457031 199.761719 223.292969 200.230469 224.019531 C 200.753906 224.832031 201.25 225.632812 201.660156 226.507812 C 202.089844 227.425781 202.265625 228.648438 203.066406 229.324219 C 203.351562 229.566406 203.777344 229.484375 203.890625 229.105469 C 203.914062 229.042969 203.917969 228.980469 203.933594 228.914062 C 204.214844 229.09375 204.613281 229.085938 204.792969 228.726562 C 205.46875 227.371094 206.238281 226.070312 206.917969 224.722656 C 207.132812 224.300781 206.699219 223.816406 206.265625 224.066406 " fill-opacity="1" fill-rule="nonzero"/><path fill="#a05f83" d="M 185.214844 253.382812 C 188.359375 265.398438 188.6875 278.878906 183.535156 290.394531 C 183.273438 290.980469 184.136719 291.492188 184.402344 290.902344 C 189.675781 279.121094 189.40625 265.429688 186.183594 253.113281 C 186.019531 252.488281 185.050781 252.753906 185.214844 253.382812 " fill-opacity="1" fill-rule="nonzero"/><path fill="#a05f83" d="M 139.109375 169.074219 C 139.542969 168.972656 139.417969 168.355469 139.011719 168.332031 C 136.515625 168.183594 134.742188 169.523438 135.207031 172.222656 C 135.558594 174.269531 137.148438 177.628906 139.511719 177.859375 C 140.003906 177.910156 140.230469 177.3125 140.039062 176.941406 C 139.308594 175.507812 138.046875 174.480469 137.4375 172.917969 C 136.765625 171.195312 137.113281 169.527344 139.109375 169.074219 " fill-opacity="1" fill-rule="nonzero"/><path fill="#d26f7a" d="M 141.867188 195.109375 L 141.527344 193.863281 C 141.589844 194.269531 141.707031 194.6875 141.867188 195.109375 " fill-opacity="1" fill-rule="nonzero"/><path fill="#d26f7a" d="M 183.359375 220.914062 C 180.449219 221.140625 177.566406 220.304688 174.824219 219.449219 C 164.714844 216.3125 155.78125 210.359375 147.859375 203.433594 C 145.113281 201.03125 143.445312 198.660156 142.355469 196.140625 C 142.164062 195.792969 141.996094 195.449219 141.867188 195.109375 L 144.492188 204.761719 C 147.761719 212.804688 151.53125 216.820312 157.8125 222.859375 C 164.101562 228.890625 170.632812 234.421875 174.90625 241.964844 C 177.421875 246.234375 181.945312 255.035156 186.46875 247.996094 C 189.738281 243.222656 187.972656 234.671875 188.980469 228.640625 C 189.535156 225.234375 190.417969 221.566406 191.546875 217.855469 C 189.804688 218.867188 188.203125 219.707031 187.007812 220.261719 C 185.847656 220.589844 184.640625 220.816406 183.359375 220.914062 " fill-opacity="1" fill-rule="nonzero"/><path fill="#d26f7a" d="M 186.742188 183.289062 C 187.109375 185.417969 183.539062 187.289062 182.132812 187.828125 C 181.746094 187.980469 181.550781 188.414062 181.699219 188.804688 C 181.8125 189.101562 182.101562 189.285156 182.402344 189.285156 C 182.492188 189.285156 182.582031 189.273438 182.671875 189.238281 C 182.925781 189.140625 188.882812 186.8125 188.226562 183.03125 C 187.789062 180.527344 186.691406 176.671875 185.527344 172.59375 C 183.625 165.914062 181.464844 158.339844 181.671875 154.84375 C 181.695312 154.429688 181.378906 154.074219 180.964844 154.046875 C 180.503906 154.027344 180.191406 154.34375 180.167969 154.757812 C 179.945312 158.507812 182.144531 166.210938 184.078125 173.007812 C 185.230469 177.046875 186.320312 180.863281 186.742188 183.289062 " fill-opacity="1" fill-rule="nonzero"/><path fill="#d26f7a" d="M 161.6875 163.730469 C 168.386719 163.351562 169.535156 167.476562 169.535156 167.476562 C 169.535156 167.476562 169.390625 161.007812 161.144531 162.09375 C 152.902344 163.183594 152.234375 168.457031 152.234375 168.457031 C 152.234375 168.457031 154.988281 164.113281 161.6875 163.730469 " fill-opacity="1" fill-rule="nonzero"/><path fill="#d26f7a" d="M 200.171875 159.386719 C 192.777344 160.367188 192.175781 165.097656 192.175781 165.097656 C 192.175781 165.097656 194.648438 161.199219 200.65625 160.859375 C 206.664062 160.515625 207.695312 164.21875 207.695312 164.21875 C 207.695312 164.21875 207.570312 158.414062 200.171875 159.386719 " fill-opacity="1" fill-rule="nonzero"/></svg>